<mxfile host="65bd71144e" pages="3">
    <diagram id="k7U1leZ_NVyK1WPOzW_l" name="structure">
        <mxGraphModel dx="910" dy="314" grid="1" gridSize="10" guides="1" tooltips="1" connect="1" arrows="1" fold="1" page="1" pageScale="1" pageWidth="1169" pageHeight="827" math="0" shadow="0">
            <root>
                <mxCell id="keOr7OvfMAd7OnkER-1M-0"/>
                <mxCell id="keOr7OvfMAd7OnkER-1M-1" parent="keOr7OvfMAd7OnkER-1M-0"/>
                <mxCell id="q8uUXsOKw8VCv3q1-f-d-4" value="" style="rounded=0;whiteSpace=wrap;html=1;fontSize=12;" parent="keOr7OvfMAd7OnkER-1M-1" vertex="1">
                    <mxGeometry x="20" y="183" width="780" height="80" as="geometry"/>
                </mxCell>
                <mxCell id="FvBOYgAS-_ke2ZwoTicX-11" value="" style="rounded=0;whiteSpace=wrap;html=1;fontSize=12;" parent="keOr7OvfMAd7OnkER-1M-1" vertex="1">
                    <mxGeometry x="20" y="280" width="780" height="80" as="geometry"/>
                </mxCell>
                <mxCell id="FvBOYgAS-_ke2ZwoTicX-12" value="implement" style="text;html=1;strokeColor=none;fillColor=none;align=center;verticalAlign=middle;whiteSpace=wrap;rounded=0;fontSize=15;fontStyle=1" parent="keOr7OvfMAd7OnkER-1M-1" vertex="1">
                    <mxGeometry x="20" y="280" width="160" height="80" as="geometry"/>
                </mxCell>
                <mxCell id="FvBOYgAS-_ke2ZwoTicX-13" value="finite state machine" style="rounded=1;whiteSpace=wrap;html=1;fontSize=12;" parent="keOr7OvfMAd7OnkER-1M-1" vertex="1">
                    <mxGeometry x="490" y="290" width="120" height="60" as="geometry"/>
                </mxCell>
                <mxCell id="FvBOYgAS-_ke2ZwoTicX-14" value="logics&lt;div&gt;1. idle&lt;/div&gt;&lt;div&gt;2. task: viewpoint available or occupied&lt;/div&gt;&lt;div&gt;3. exceptions (e.g. failure of odm)&lt;/div&gt;" style="rounded=1;whiteSpace=wrap;html=1;fontSize=12;" parent="keOr7OvfMAd7OnkER-1M-1" vertex="1">
                    <mxGeometry x="180" y="290" width="290" height="60" as="geometry"/>
                </mxCell>
                <mxCell id="FvBOYgAS-_ke2ZwoTicX-16" value="&lt;span style=&quot;color: rgb(0, 0, 0);&quot;&gt;service&lt;/span&gt;" style="rounded=1;whiteSpace=wrap;html=1;fontSize=12;" parent="keOr7OvfMAd7OnkER-1M-1" vertex="1">
                    <mxGeometry x="490" y="193" width="120" height="60" as="geometry"/>
                </mxCell>
                <mxCell id="FvBOYgAS-_ke2ZwoTicX-17" value="" style="rounded=0;whiteSpace=wrap;html=1;fontSize=12;" parent="keOr7OvfMAd7OnkER-1M-1" vertex="1">
                    <mxGeometry x="20" y="380" width="780" height="80" as="geometry"/>
                </mxCell>
                <mxCell id="FvBOYgAS-_ke2ZwoTicX-18" value="example" style="text;html=1;strokeColor=none;fillColor=none;align=center;verticalAlign=middle;whiteSpace=wrap;rounded=0;fontSize=15;fontStyle=1" parent="keOr7OvfMAd7OnkER-1M-1" vertex="1">
                    <mxGeometry x="20" y="380" width="160" height="80" as="geometry"/>
                </mxCell>
                <mxCell id="FvBOYgAS-_ke2ZwoTicX-24" value="exmample about how to use the library" style="rounded=1;whiteSpace=wrap;html=1;fontSize=12;" parent="keOr7OvfMAd7OnkER-1M-1" vertex="1">
                    <mxGeometry x="180" y="390" width="280" height="60" as="geometry"/>
                </mxCell>
                <mxCell id="q8uUXsOKw8VCv3q1-f-d-5" value="ros" style="text;html=1;strokeColor=none;fillColor=none;align=center;verticalAlign=middle;whiteSpace=wrap;rounded=0;fontSize=15;fontStyle=1" parent="keOr7OvfMAd7OnkER-1M-1" vertex="1">
                    <mxGeometry x="20" y="183" width="160" height="80" as="geometry"/>
                </mxCell>
                <mxCell id="q8uUXsOKw8VCv3q1-f-d-6" value="main" style="rounded=1;whiteSpace=wrap;html=1;fontSize=12;" parent="keOr7OvfMAd7OnkER-1M-1" vertex="1">
                    <mxGeometry x="180" y="193" width="120" height="60" as="geometry"/>
                </mxCell>
                <mxCell id="q8uUXsOKw8VCv3q1-f-d-9" value="topic" style="rounded=1;whiteSpace=wrap;html=1;fontSize=12;" parent="keOr7OvfMAd7OnkER-1M-1" vertex="1">
                    <mxGeometry x="340" y="193" width="120" height="60" as="geometry"/>
                </mxCell>
            </root>
        </mxGraphModel>
    </diagram>
    <diagram id="kBfOB2SBIhDGXqwLswxl" name="workflow">
        <mxGraphModel dx="1133" dy="550" grid="1" gridSize="10" guides="1" tooltips="1" connect="1" arrows="1" fold="1" page="1" pageScale="1" pageWidth="2336" pageHeight="1654" math="0" shadow="0">
            <root>
                <mxCell id="L_x6KOI5Ie3beH957Cwe-0"/>
                <mxCell id="L_x6KOI5Ie3beH957Cwe-1" parent="L_x6KOI5Ie3beH957Cwe-0"/>
            </root>
        </mxGraphModel>
    </diagram>
</mxfile>